<svg id="bootstrap-4" xmlns="http://www.w3.org/2000/svg" width="60.494" height="60.494" viewBox="0 0 60.494 60.494">
  <path id="Path_15" data-name="Path 15" d="M0,52.694a7.8,7.8,0,0,0,7.8,7.8H52.694a7.8,7.8,0,0,0,7.8-7.8V7.8a7.8,7.8,0,0,0-7.8-7.8H7.8A7.8,7.8,0,0,0,0,7.8V52.694Z" fill="#563d7c"/>
  <path id="Path_16" data-name="Path 16" d="M80.129,65.325V56.759H87.67a11.729,11.729,0,0,1,2.078.18,5.185,5.185,0,0,1,1.77.641,3.419,3.419,0,0,1,1.231,1.282,4.259,4.259,0,0,1,.462,2.1A3.875,3.875,0,0,1,91.825,64.3a5.789,5.789,0,0,1-3.54,1.026H80.129ZM72.075,50.5V87.127H89.824a18.726,18.726,0,0,0,4.8-.616,12.828,12.828,0,0,0,4.155-1.9,9.349,9.349,0,0,0,2.9-3.309,11.2,11.2,0,0,0-.59-10.67,8.8,8.8,0,0,0-5.053-3.412A9.129,9.129,0,0,0,99.751,64.2a8.024,8.024,0,0,0,1.257-4.617,9.825,9.825,0,0,0-.846-4.309,7.039,7.039,0,0,0-2.386-2.8,10.3,10.3,0,0,0-3.693-1.513,22.8,22.8,0,0,0-4.771-.462Zm8.054,30.369V70.814H88.9a6.786,6.786,0,0,1,4.207,1.206,4.736,4.736,0,0,1,1.59,4.027,5.034,5.034,0,0,1-.488,2.36A3.871,3.871,0,0,1,92.9,79.869a5.54,5.54,0,0,1-1.9.77,10.769,10.769,0,0,1-2.257.231Z" transform="translate(-55.043 -38.567)" fill="#fff"/>
</svg>
